<?xml version="1.0" encoding="utf-8"?>
<!-- Generator: Adobe Illustrator 24.2.1, SVG Export Plug-In . SVG Version: 6.00 Build 0)  -->
<svg version="1.1" id="Layer_1" xmlns="http://www.w3.org/2000/svg" xmlns:xlink="http://www.w3.org/1999/xlink" x="0px" y="0px"
	 viewBox="0 0 16 16" style="enable-background:new 0 0 16 16;" xml:space="preserve">
<style type="text/css">
	.st0{fill:#007AFF;}
	.st1{fill:#94EBFF;}
	.st2{fill:#27B2FF;}
</style>
<g>
	<g>
		<path class="st0" d="M3.04,10.67c0.12,0.21,0.25,0.4,0.4,0.58c-0.14-0.18-0.28-0.37-0.39-0.57C3.04,10.68,3.04,10.68,3.04,10.67z"
			/>
		<path class="st0" d="M4.61,12.27h-0.5c-1.81,0-3.31-1.34-3.58-3.08c0,0,0,0,0,0C0.5,9.02,0.48,8.84,0.48,8.65V3.87
			c0-0.03,0.01-0.05,0.02-0.08c0.01-0.02,0.03-0.03,0.04-0.04c0.03-0.03,0.07-0.03,0.11-0.03h1.66c0.1,0,0.18,0.05,0.18,0.15v4.78
			c0,0.1,0.01,0.21,0.02,0.32c0.09,0.71,0.43,1.5,0.5,1.67c0,0,0,0.01,0.01,0.01c0,0.01,0.01,0.02,0.01,0.02c0,0,0,0,0,0
			c0,0,0,0.01,0.01,0.01c0.11,0.2,0.24,0.39,0.39,0.57c0.01,0.02,0.03,0.03,0.04,0.05c0.02,0.02,0.04,0.04,0.05,0.06
			C3.84,11.72,4.2,12.02,4.61,12.27z"/>
		<path class="st1" d="M8.95,7.36V8.6c0,2.01-1.6,3.67-3.61,3.67H4.61c-0.41-0.26-0.77-0.56-1.08-0.91
			c-0.6-0.58-0.92-1.68-1.01-2.39c0.15,0.73,0.8,1.28,1.58,1.28h1.24c0.36,0,0.83-0.12,1.14-0.49c0.3-0.3,0.47-0.71,0.47-1.17V7.36
			c0-0.14,0-0.44,0-0.44c-0.09-0.9-0.37-1.78-0.79-2.56c0,0,0,0.02,0,0.02C6.05,4.16,5.92,3.96,5.79,3.76
			C7.95,3.94,9.09,6.06,8.95,7.36z"/>
		<path class="st2" d="M6.17,4.37L6.17,4.37C6.06,4.17,5.93,3.95,5.8,3.76C5.66,3.74,5.52,3.73,5.37,3.73H4.5v2.02h0.87
			c0.75,0,1.4,0.46,1.58,1.17C6.95,6.92,6.89,5.73,6.17,4.37z"/>
	</g>
	<g>
		<path class="st2" d="M13.52,7.12c0-1.39-0.66-2.63-1.68-3.4h-1.37c-1.93,0-3.52,1.55-3.52,3.48v1.6c0,2.58,2.4,3.42,3.31,3.47
			c-0.21-0.28-0.39-0.58-0.55-0.9C9.08,9.83,9.03,9.18,9.03,9.18C8.92,8.69,8.98,7.21,8.98,7.21c0-0.81,0.67-1.47,1.49-1.47h1.6
			c0.8,0,1.44,0.65,1.44,1.45v0.16C13.53,7.27,13.52,7.2,13.52,7.12z"/>
		<path class="st1" d="M13.51,10.26h-1.36h-1.71c-0.69,0-1.26-0.47-1.41-1.08c0,0,0.09,0.83,0.69,2.21c0.14,0.32,0.34,0.6,0.54,0.88
			c0,0,0.12,0,0.18,0h3.07h-0.01"/>
		<path class="st0" d="M15.52,7.18c0-1.92-1.54-3.46-3.45-3.46h-0.23c1.02,0.77,1.67,1.98,1.67,3.37c0,0.08,0,0.18,0,0.25v1.8l0,0
			v3.13h2.01V7.18z"/>
	</g>
</g>
</svg>
