<?xml version="1.0" encoding="utf-8"?>
<!-- Generator: Adobe Illustrator 24.2.1, SVG Export Plug-In . SVG Version: 6.00 Build 0)  -->
<svg version="1.1" id="Layer_1" xmlns="http://www.w3.org/2000/svg" xmlns:xlink="http://www.w3.org/1999/xlink" x="0px" y="0px"
	 viewBox="0 0 500 354" style="enable-background:new 0 0 500 354;" xml:space="preserve">
<style type="text/css">
	.st0{fill:#FFFFFF;}
	.st1{fill:#007AFF;}
	.st2{fill:#27B2FF;}
	.st3{fill:#94EBFF;}
</style>
<g>
	<g>
		<g>
			<path class="st0" d="M36.7,244.1c14,0,25,6.4,25,21c0,6.2-3.3,11.8-10.2,14.6c8.8,2.6,12.5,11.4,12.5,16.9
				c0,16.1-12.8,21-27.4,21c-11.5,0-22.3,0-33.8,0v-73.6H36.7z M14.6,274.6h22.2c8.8,0,13.3-3.5,13.3-9.3c0-5.2-4.5-10.6-13.4-10.6
				H14.6V274.6z M14.6,306.8h22.1c6.5,0,15.6-2.1,15.6-10.2c0-7.9-8.7-11.5-15.5-11.5c-7.5,0-14.7,0-22.2,0V306.8z"/>
			<path class="st0" d="M373,304.9h-2.4c-2.8,0-5,2.2-5,5v2.6c0,2.9,2.3,5.2,5.2,5.2h4.3h3.1v-7.6
				C378.2,307.3,375.9,304.9,373,304.9z"/>
			<g>
				<path class="st0" d="M79.9,256.8h2.4c2.8,0,5-2.2,5-5v-2.6c0-2.9-2.3-5.2-5.2-5.2h-4.3h-3.1v7.6
					C74.7,254.5,77.1,256.8,79.9,256.8z"/>
				<path class="st0" d="M75.7,264.2v53.6h10.8v-50.1c0-1.9-1.5-3.4-3.4-3.4H75.7z"/>
			</g>
			<path class="st0" d="M220.1,302.3h-40l-6.1,13.5c-0.6,1.2-1.8,2-3.1,2h-10.3l33.1-73.8h10.6c1.3,0,2.6,0.8,3.1,2l32.2,71.8h-10.3
				c-1.3,0-2.6-0.8-3.1-2L220.1,302.3z M200.1,256.4l-15.6,35.1h31.2L200.1,256.4z"/>
			<path class="st0" d="M348.5,275.5c-1.1,1.3-3,1.6-4.4,0.6c-3.4-2.2-7-2.9-11.1-2.9c-6.5-0.1-10.8,2.1-10.8,6.1
				c0.1,4.2,4.5,5.9,11,6.5c9.4,0.8,21.6,2.9,21.5,16c-0.1,9.5-8.4,16.1-21.6,16.1c-8.2,0-16.5-1.9-23.2-9.4l3.3-4.5
				c1.1-1.5,3.3-1.8,4.8-0.6c4.5,3.5,10.3,5.1,15.3,5.1c5,0,10.7-1.9,10.8-6.6c0.1-4.5-4.2-6.3-11.7-7c-9.6-0.9-20.6-4-20.7-15.2
				c0-11.2,11.6-15.4,21.1-15.4c7.8,0,13.9,1.8,19.6,6.8L348.5,275.5z"/>
			<path class="st0" d="M439.9,264.1l-22.6,53.6h-12.2l-22.7-53.6h10c1.4,0,2.6,0.8,3.2,2.1l6.3,15.1l9.4,24.8l8.4-22.6l7.1-17.2
				c0.5-1.3,1.8-2.1,3.2-2.1H439.9z"/>
			<path class="st0" d="M474.4,264.1c-6.7,0-12.5,2.7-17.5,8.1v-4.7c0-1.9-1.5-3.4-3.4-3.4h-7.6v0.7v14.4v38.5h11v-27.6
				c0-8.6,5.9-15.8,14.6-15.8c8-0.1,14.4,6.6,14.4,14.5v25.5c0,1.9,1.5,3.4,3.4,3.4h7.7v-28.4C497.1,273.2,487.2,264.1,474.4,264.1z
				"/>
			<path class="st0" d="M289.2,243.9v29.5c-3.3-6-11.8-9.2-18-9.2c-14.9,0-26,9.3-26,26.8c0,17,11.4,26.8,26.2,26.8
				c6.7,0,13.5-2.5,17.6-8.8v8.8h11v-1v-13.3v-56.6c0-1.6-1.3-2.9-2.9-2.9H289.2z M272.1,307.8c-9.1,0-16.2-6.5-16.2-16.8
				c0-10.5,7.2-16.7,16.2-16.7c9,0,16.3,6.8,16.3,16.7C288.5,301.1,281.1,307.8,272.1,307.8z"/>
			<path class="st0" d="M140.9,312c9.6-3.7,14.2-11.4,14.2-20.9c0-6.6-2.1-11.4-6.5-16.6l6.4-7.5l-5.5-4.3c-1.5-1.1-3.6-0.9-4.7,0.5
				l-3.8,4.6c-3.8-2.6-10-3.7-14.4-3.7c-14.6,0-29,9-29,26.9c0,16.7,11.6,26.7,29,26.7c10,0,16.8,4.1,16.8,11.6
				c0,7.6-8.8,11-17.1,11c-7.9-0.1-15.4-3.6-16.8-10.2c-0.3-1.6-1.7-2.7-3.3-2.7h-8.1c-0.3,10.8,5.4,18.4,15.3,21.8
				c0.7,0.2,1.5,0.5,2.2,0.7c3.2,0.9,6.8,1.3,10.7,1.3c0.7,0,1.4,0,2.1-0.1c1-0.1,2.1-0.1,3.1-0.3c12.4-1.6,23.4-8.7,23.4-21.5
				C155.1,323.1,151.9,315.7,140.9,312z M126.6,307.5c-9.7,0-17.7-5.8-17.7-16.4c0-11.2,8.6-16.5,17.7-16.5c9.2,0,17.4,6,17.4,16.5
				C144,300.8,136.5,307.5,126.6,307.5z"/>
		</g>
	</g>
	<g>
		<g>
			<path class="st1" d="M126.8,175.1c2.9,5.1,6.2,9.9,9.8,14.4c-3.6-4.4-6.8-9.1-9.7-14.1C126.9,175.4,126.9,175.3,126.8,175.1z"/>
			<path class="st2" d="M165.8,214.9h-12.4c-45,0-82.3-33.2-88.9-76.4c0,0,0-0.1,0-0.1c-0.7-4.4-1-8.9-1-13.5V6.4
				c0-0.8,0.2-1.3,0.5-1.9c0.3-0.4,0.7-0.7,1-1.1c0.8-0.6,1.7-0.7,2.8-0.7h41.2c2.4,0,4.6,1.3,4.6,3.7V125c0,2.6,0.2,5.3,0.5,8
				c2.2,17.7,10.6,37.4,12.4,41.4c0.1,0.1,0.1,0.2,0.2,0.3c0.1,0.3,0.2,0.4,0.2,0.4c0,0,0,0,0,0c0.1,0.1,0.1,0.2,0.2,0.3
				c2.8,5,6.1,9.7,9.7,14.1c0.3,0.4,0.7,0.8,1,1.3c0.4,0.5,0.9,1.1,1.4,1.6C146.7,201.1,155.7,208.6,165.8,214.9z"/>
			<path class="st0" d="M273.7,93v30.7c0,50-39.6,91.2-89.6,91.2h-18.3c-10.1-6.4-19.1-13.9-26.7-22.6c-14.8-14.4-22.8-41.6-25-59.4
				c3.8,18.2,19.9,31.8,39.3,31.8H184c8.8,0,20.5-2.9,28.2-12.1c7.5-7.4,11.8-17.6,11.8-29V93c0-3.5,0.1-11,0.1-11
				c-2.2-22.4-9.1-44.3-19.6-63.6c0,0,0,0.4,0,0.4c-2.9-5.2-6-10.4-9.4-15.2C248.8,8,277.1,60.6,273.7,93z"/>
			<path class="st3" d="M204.6,18.7L204.6,18.7c-2.9-4.9-6-10.3-9.4-15.2c-3.4-0.4-6.9-0.6-10.5-0.6h-21.6V53h21.6
				c18.7,0,34.7,11.5,39.2,29C224,82,222.6,52.3,204.6,18.7z"/>
		</g>
		<g>
			<path class="st3" d="M387,87.1c0-34.5-16.3-65.3-41.7-84.4h-34c-47.9,0-87.3,38.6-87.3,86.4v39.7c0,64.1,59.5,85,82.3,86.1
				c-5.1-7.1-9.6-14.5-13.6-22.3c-15.9-38.3-17-54.4-17-54.4c-2.8-12.2-1.3-49-1.3-49c0-20.2,16.8-36.6,36.9-36.6h39.7
				c19.9,0,35.9,16.1,35.9,36v3.9C387.2,90.6,387,88.9,387,87.1z"/>
			<path class="st0" d="M386.7,165h-33.7h-42.4c-17,0-31.3-11.7-35.1-26.9c0,0,2.1,20.5,17,54.9c3.5,8,8.5,14.8,13.5,21.8
				c0,0.1,3.1,0,4.5,0h76.3h-0.2"/>
			<path class="st2" d="M436.6,88.5c0-47.6-38.2-85.9-85.7-85.9h-5.6c25.4,19.1,41.5,49.1,41.5,83.6c0,2,0,4.4,0,6.2v44.6l0,0v77.8
				h49.9V88.5z"/>
		</g>
	</g>
</g>
</svg>
