<?xml version="1.0" encoding="utf-8"?>
<!-- Generator: Adobe Illustrator 25.4.1, SVG Export Plug-In . SVG Version: 6.00 Build 0)  -->
<svg version="1.1" id="Layer_1" xmlns="http://www.w3.org/2000/svg" xmlns:xlink="http://www.w3.org/1999/xlink" x="0px" y="0px"
	 viewBox="0 0 500 354" style="enable-background:new 0 0 500 354;" xml:space="preserve">
<style type="text/css">
	.st0{fill:#007AFF;}
	.st1{fill:#FFFFFF;}
	.st2{fill:#94EBFF;}
	.st3{fill:#27B2FF;}
</style>
<g>
	<g>
		<g>
			<path class="st0" d="M127.87,175.51c2.85,5.06,6.12,9.81,9.75,14.27c-3.57-4.36-6.78-9.02-9.6-13.97
				C127.97,175.71,127.92,175.62,127.87,175.51z"/>
			<path class="st1" d="M166.47,214.96h-12.34c-44.62,0-81.59-32.95-88.16-75.74c-0.01-0.01-0.03-0.06-0.04-0.08
				c-0.66-4.35-0.99-8.82-0.99-13.36V8.15c0-0.75,0.18-1.28,0.52-1.9c0.33-0.42,0.67-0.66,1-1.08c0.75-0.64,1.71-0.68,2.76-0.68
				h40.88c2.37,0,4.55,1.26,4.55,3.65v117.63c0,2.56,0.19,5.23,0.54,7.95c2.19,17.58,10.5,37.04,12.3,41.01
				c0.05,0.12,0.11,0.22,0.15,0.33c0.12,0.26,0.19,0.4,0.19,0.4c0.01,0.01,0.01,0.03,0.02,0.04c0.05,0.11,0.1,0.2,0.15,0.29
				c2.81,4.95,6.03,9.61,9.6,13.97c0.34,0.42,0.68,0.83,1.03,1.25c0.44,0.53,0.89,1.05,1.34,1.56
				C147.53,201.22,156.47,208.66,166.47,214.96z"/>
			<path class="st2" d="M273.47,94.05v30.45c0,49.58-39.31,90.46-88.88,90.46h-18.12c-10-6.33-18.95-13.76-26.48-22.37
				c-14.71-14.32-22.6-41.28-24.79-58.86c3.73,18.08,19.73,31.51,38.93,31.51h30.46c8.75,0,20.34-2.9,27.96-11.99
				c7.43-7.32,11.69-17.49,11.69-28.75V94.05c0-3.47,0.08-10.87,0.08-10.87c-2.21-22.2-9.01-43.89-19.47-63.08
				c0,0-0.01,0.39-0.01,0.39c-2.83-5.2-5.93-10.27-9.28-15.11C248.86,9.81,276.85,61.94,273.47,94.05z"/>
			<path class="st1" d="M205.03,20.33L205.03,20.33c-2.84-4.86-5.94-10.21-9.29-15.05c-3.41-0.4-6.88-0.59-10.4-0.59H163.9v49.69
				h21.45c18.51,0,34.45,11.42,38.89,28.8C224.24,83.18,222.79,53.74,205.03,20.33z"/>
		</g>
		<g>
			<path class="st3" d="M385.84,88.16c0-34.19-16.17-64.75-41.39-83.66h-33.73c-47.47,0-86.58,38.23-86.58,85.7v39.32
				c0,63.6,59,84.27,81.6,85.41c-5.06-6.99-9.56-14.39-13.52-22.13c-15.72-37.98-16.86-53.99-16.86-53.99
				c-2.74-12.12-1.28-48.61-1.28-48.61c0-20.03,16.61-36.24,36.64-36.24h39.32c19.71,0,35.56,15.96,35.56,35.67v3.91
				C386.08,91.69,385.84,90.03,385.84,88.16z"/>
			<path class="st1" d="M385.6,165.48h-33.38h-42.07c-16.87,0-31.04-11.64-34.78-26.67c0,0,2.11,20.36,16.88,54.47
				c3.42,7.9,8.39,14.72,13.4,21.64c0.05,0.07,3.04,0.01,4.5,0.01h75.64h-0.18"/>
			<path class="st1" d="M435.05,89.63c0-47.16-37.86-85.13-85.02-85.13h-5.59c25.22,18.91,41.15,48.72,41.15,82.91
				c0,1.94,0,4.36,0,6.13v44.25l0,0v77.14h49.46V89.63z"/>
		</g>
	</g>
	<g>
		<path class="st1" d="M39.45,243.7c13.81,0,24.71,6.33,24.71,20.77c0,6.13-3.22,11.63-10.07,14.43
			c8.72,2.6,12.36,11.21,12.36,16.72c0,15.89-12.67,20.77-27,20.77c-11.32,0-22.01,0-33.33,0V243.7H39.45z M17.64,273.82h21.91
			c8.72,0,13.08-3.43,13.08-9.14c0-5.09-4.46-10.49-13.19-10.49H17.64V273.82z M17.64,305.59h21.81c6.44,0,15.37-2.08,15.37-10.07
			c0-7.79-8.62-11.32-15.26-11.32c-7.37,0-14.54,0-21.91,0V305.59z"/>
		<path class="st1" d="M371.41,303.71h-2.33c-2.73,0-4.94,2.21-4.94,4.94v2.61c0,2.82,2.31,5.13,5.13,5.13h4.26h3.01v-7.54
			C376.55,306.02,374.24,303.71,371.41,303.71z"/>
		<g>
			<path class="st1" d="M82.15,256.26h2.33c2.73,0,4.94-2.21,4.94-4.94v-2.61c0-2.82-2.31-5.13-5.13-5.13h-4.26h-3.01v7.54
				C77.02,253.95,79.33,256.26,82.15,256.26z"/>
			<path class="st1" d="M77.97,263.52v52.87h10.7V266.9c0-1.87-1.51-3.38-3.38-3.38H77.97z"/>
		</g>
		<path class="st1" d="M220.46,301.09H181l-5.97,13.3c-0.55,1.22-1.76,2-3.09,2h-10.19l32.69-72.87h10.51c1.33,0,2.54,0.78,3.09,2
			l31.79,70.87h-10.21c-1.33,0-2.53-0.77-3.08-1.98L220.46,301.09z M200.78,255.8l-15.41,34.67h30.81L200.78,255.8z"/>
		<path class="st1" d="M347.22,274.64c-1.09,1.28-2.96,1.53-4.35,0.6c-3.32-2.2-6.88-2.87-10.92-2.87c-6.4-0.1-10.67,2.03-10.67,6
			c0.1,4.17,4.47,5.79,10.88,6.4c9.25,0.81,21.34,2.85,21.24,15.75c-0.1,9.35-8.33,15.86-21.34,15.86c-8.13,0-16.26-1.83-22.87-9.25
			l3.29-4.45c1.11-1.5,3.24-1.78,4.72-0.62c4.46,3.49,10.15,4.99,15.06,5.07c4.98,0,10.57-1.83,10.67-6.5
			c0.1-4.47-4.17-6.2-11.59-6.91c-9.45-0.91-20.33-3.96-20.43-15.04c0-11.08,11.48-15.25,20.84-15.25c7.72,0,13.72,1.73,19.31,6.71
			L347.22,274.64z"/>
		<path class="st1" d="M437.43,263.44l-22.31,52.95h-12.06l-22.42-52.95h9.9c1.37,0,2.61,0.83,3.13,2.09l6.18,14.88l9.29,24.44
			l8.33-22.31l7.03-17.01c0.52-1.27,1.76-2.1,3.13-2.1H437.43z"/>
		<path class="st1" d="M471.48,263.44c-6.62,0-12.33,2.64-17.23,8.01v-4.64c0-1.86-1.51-3.37-3.37-3.37h-7.52v0.74v14.23v37.99
			h10.89v-27.27c0-8.52,5.86-15.57,14.46-15.64c7.86-0.06,14.19,6.48,14.19,14.34v25.2c0,1.86,1.51,3.37,3.37,3.37h7.62v-28.01
			C493.88,272.42,484.16,263.44,471.48,263.44z"/>
		<path class="st1" d="M288.68,243.52v29.09c-3.29-5.96-11.61-9.04-17.78-9.04c-14.7,0-25.69,9.15-25.69,26.41
			c0,16.75,11.2,26.41,25.9,26.41c6.66,0,13.32-2.48,17.35-8.69v8.69h10.81v-1.03v-13.13V246.4c0-1.59-1.29-2.88-2.88-2.88H288.68z
			 M271.82,306.52c-8.94,0-16.03-6.37-16.03-16.55c0-10.38,7.09-16.44,16.03-16.44c8.84,0,16.14,6.68,16.14,16.44
			C287.96,299.95,280.66,306.52,271.82,306.52z"/>
		<path class="st1" d="M142.36,310.7c9.43-3.64,14.04-11.26,14.04-20.58c0-6.54-2.04-11.26-6.43-16.4l6.32-7.4l-5.44-4.2
			c-1.45-1.12-3.53-0.88-4.69,0.53l-3.7,4.53c-3.75-2.57-9.86-3.64-14.26-3.64c-14.36,0-28.62,8.9-28.62,26.58
			c0,16.51,11.47,26.37,28.62,26.37c9.86,0,16.61,4.07,16.61,11.47c0,7.5-8.68,10.83-16.83,10.83c-7.78-0.09-15.23-3.55-16.61-10.07
			c-0.33-1.56-1.71-2.68-3.31-2.68h-7.95c-0.31,10.62,5.38,18.15,15.07,21.51c0.71,0.25,1.44,0.47,2.19,0.67
			c3.19,0.85,6.74,1.3,10.61,1.3c0.7,0,1.41-0.02,2.11-0.05c1.03-0.05,2.06-0.14,3.07-0.27c12.23-1.55,23.11-8.62,23.11-21.22
			C156.3,321.63,153.19,314.34,142.36,310.7z M128.21,306.3c-9.54,0-17.47-5.68-17.47-16.19c0-11.04,8.47-16.29,17.47-16.29
			c9.11,0,17.15,5.9,17.15,16.29C145.36,299.66,137.97,306.3,128.21,306.3z"/>
	</g>
</g>
</svg>
