<?xml version="1.0" encoding="utf-8"?>
<!-- Generator: Adobe Illustrator 24.2.1, SVG Export Plug-In . SVG Version: 6.00 Build 0)  -->
<svg version="1.1" id="Layer_1" xmlns="http://www.w3.org/2000/svg" xmlns:xlink="http://www.w3.org/1999/xlink" x="0px" y="0px"
	 viewBox="0 0 500 100" style="enable-background:new 0 0 500 100;" xml:space="preserve">
<style type="text/css">
	.st0{fill:#007AFF;}
	.st1{fill:#27B2FF;}
	.st2{fill:#FFFFFF;}
	.st3{fill:#94EBFF;}
</style>
<g>
	<g>
		<g>
			<path class="st0" d="M22.5,59.6c0.9,1.7,2,3.2,3.2,4.7C24.6,62.9,23.5,61.4,22.5,59.6C22.6,59.7,22.6,59.7,22.5,59.6z"/>
			<path class="st1" d="M35.2,72.6h-4c-14.6,0-26.8-10.8-28.9-24.9c0,0,0,0,0,0c-0.2-1.4-0.3-2.9-0.3-4.4V4.7c0-0.2,0.1-0.4,0.2-0.6
				C2.2,4,2.3,3.9,2.4,3.7C2.6,3.5,3,3.5,3.3,3.5h13.4c0.8,0,1.5,0.4,1.5,1.2v38.6c0,0.8,0.1,1.7,0.2,2.6c0.7,5.8,3.4,12.2,4,13.5
				c0,0,0,0.1,0.1,0.1c0,0.1,0.1,0.1,0.1,0.1c0,0,0,0,0,0c0,0,0,0.1,0,0.1c0.9,1.6,2,3.2,3.1,4.6c0.1,0.1,0.2,0.3,0.3,0.4
				c0.1,0.2,0.3,0.3,0.4,0.5C29,68.1,31.9,70.5,35.2,72.6z"/>
			<path class="st2" d="M70.3,32.9v10c0,16.3-12.9,29.7-29.2,29.7h-5.9c-3.3-2.1-6.2-4.5-8.7-7.3c-4.8-4.7-7.4-13.5-8.1-19.3
				c1.2,5.9,6.5,10.3,12.8,10.3h10c2.9,0,6.7-1,9.2-3.9c2.4-2.4,3.8-5.7,3.8-9.4v-10c0-1.1,0-3.6,0-3.6c-0.7-7.3-3-14.4-6.4-20.7
				c0,0,0,0.1,0,0.1c-0.9-1.7-1.9-3.4-3-5C62.2,5.3,71.4,22.4,70.3,32.9z"/>
			<path class="st3" d="M47.9,8.7L47.9,8.7c-0.9-1.6-1.9-3.3-3-4.9c-1.1-0.1-2.3-0.2-3.4-0.2h-7v16.3h7c6.1,0,11.3,3.7,12.8,9.4
				C54.2,29.3,53.7,19.7,47.9,8.7z"/>
		</g>
		<g>
			<path class="st3" d="M107.2,31c0-11.2-5.3-21.2-13.6-27.5H82.5C67,3.5,54.1,16.1,54.1,31.6v12.9c0,20.9,19.4,27.7,26.8,28
				c-1.7-2.3-3.1-4.7-4.4-7.3c-5.2-12.5-5.5-17.7-5.5-17.7c-0.9-4-0.4-16-0.4-16c0-6.6,5.5-11.9,12-11.9h12.9
				c6.5,0,11.7,5.2,11.7,11.7v1.3C107.3,32.1,107.2,31.6,107.2,31z"/>
			<path class="st2" d="M107.1,56.3h-11H82.4c-5.5,0-10.2-3.8-11.4-8.8c0,0,0.7,6.7,5.5,17.9c1.1,2.6,2.8,4.8,4.4,7.1c0,0,1,0,1.5,0
				h24.8h-0.1"/>
			<path class="st1" d="M123.3,31.5c0-15.5-12.4-27.9-27.9-27.9h-1.8c8.3,6.2,13.5,16,13.5,27.2c0,0.6,0,1.4,0,2v14.5l0,0v25.3h16.2
				V31.5z"/>
		</g>
	</g>
	<g>
		<g>
			<path class="st2" d="M170.8,20.3c9.9,0,17.8,4.6,17.8,15c0,4.4-2.3,8.4-7.3,10.4c6.3,1.9,8.9,8.1,8.9,12c0,11.4-9.1,15-19.5,15
				c-8.2,0-15.9,0-24,0V20.3H170.8z M155.1,42h15.8c6.3,0,9.4-2.5,9.4-6.6c0-3.7-3.2-7.6-9.5-7.6h-15.7V42z M155.1,64.8h15.7
				c4.6,0,11.1-1.5,11.1-7.3c0-5.6-6.2-8.2-11-8.2c-5.3,0-10.5,0-15.8,0V64.8z"/>
			<path class="st2" d="M409.9,63.5h-1.7c-2,0-3.6,1.6-3.6,3.6v1.9c0,2,1.7,3.7,3.7,3.7h3.1h2.2v-5.4
				C413.6,65.2,412,63.5,409.9,63.5z"/>
			<g>
				<path class="st2" d="M201.5,29.3h1.7c2,0,3.6-1.6,3.6-3.6v-1.9c0-2-1.7-3.7-3.7-3.7H200h-2.2v5.4
					C197.8,27.6,199.5,29.3,201.5,29.3z"/>
				<path class="st2" d="M198.5,34.5v38.1h7.7V37c0-1.3-1.1-2.4-2.4-2.4H198.5z"/>
			</g>
			<path class="st2" d="M301.2,61.6h-28.4l-4.3,9.6c-0.4,0.9-1.3,1.4-2.2,1.4h-7.3l23.5-52.5h7.6c1,0,1.8,0.6,2.2,1.4l22.9,51.1
				h-7.4c-1,0-1.8-0.6-2.2-1.4L301.2,61.6z M287,29l-11.1,25h22.2L287,29z"/>
			<path class="st2" d="M392.5,42.6c-0.8,0.9-2.1,1.1-3.1,0.4c-2.4-1.6-5-2.1-7.9-2.1c-4.6-0.1-7.7,1.5-7.7,4.3
				c0.1,3,3.2,4.2,7.8,4.6c6.7,0.6,15.4,2.1,15.3,11.3c-0.1,6.7-6,11.4-15.4,11.4c-5.9,0-11.7-1.3-16.5-6.7l2.4-3.2
				c0.8-1.1,2.3-1.3,3.4-0.4c3.2,2.5,7.3,3.6,10.9,3.7c3.6,0,7.6-1.3,7.7-4.7c0.1-3.2-3-4.5-8.3-5c-6.8-0.7-14.6-2.9-14.7-10.8
				c0-8,8.3-11,15-11c5.6,0,9.9,1.2,13.9,4.8L392.5,42.6z"/>
			<path class="st2" d="M457.5,34.5l-16.1,38.1h-8.7l-16.1-38.1h7.1c1,0,1.9,0.6,2.3,1.5l4.5,10.7l6.7,17.6l6-16.1l5.1-12.3
				c0.4-0.9,1.3-1.5,2.3-1.5H457.5z"/>
			<path class="st2" d="M482,34.5c-4.8,0-8.9,1.9-12.4,5.8v-3.3c0-1.3-1.1-2.4-2.4-2.4h-5.4V35v10.2v27.4h7.8V53
				c0-6.1,4.2-11.2,10.4-11.3c5.7,0,10.2,4.7,10.2,10.3v18.2c0,1.3,1.1,2.4,2.4,2.4h5.5V52.5C498.1,41,491.1,34.5,482,34.5z"/>
			<path class="st2" d="M350.3,20.1v21c-2.4-4.3-8.4-6.5-12.8-6.5c-10.6,0-18.5,6.6-18.5,19c0,12.1,8.1,19,18.7,19
				c4.8,0,9.6-1.8,12.5-6.3v6.3h7.8v-0.7v-9.5V22.2c0-1.1-0.9-2.1-2.1-2.1H350.3z M338.2,65.5c-6.4,0-11.6-4.6-11.6-11.9
				c0-7.5,5.1-11.8,11.6-11.8c6.4,0,11.6,4.8,11.6,11.8C349.8,60.8,344.6,65.5,338.2,65.5z"/>
			<path class="st2" d="M244.9,68.5c6.8-2.6,10.1-8.1,10.1-14.8c0-4.7-1.5-8.1-4.6-11.8l4.6-5.3l-3.9-3c-1-0.8-2.5-0.6-3.4,0.4
				l-2.7,3.3c-2.7-1.9-7.1-2.6-10.3-2.6c-10.3,0-20.6,6.4-20.6,19.2c0,11.9,8.3,19,20.6,19c7.1,0,12,2.9,12,8.3
				c0,5.4-6.3,7.8-12.1,7.8c-5.6-0.1-11-2.6-12-7.3c-0.2-1.1-1.2-1.9-2.4-1.9h-5.7c-0.2,7.6,3.9,13.1,10.9,15.5
				c0.5,0.2,1,0.3,1.6,0.5c2.3,0.6,4.9,0.9,7.6,0.9c0.5,0,1,0,1.5,0c0.7,0,1.5-0.1,2.2-0.2C247.1,95.1,255,90,255,81
				C255,76.4,252.7,71.2,244.9,68.5z M234.7,65.4c-6.9,0-12.6-4.1-12.6-11.7c0-8,6.1-11.7,12.6-11.7c6.6,0,12.4,4.2,12.4,11.7
				C247.1,60.6,241.8,65.4,234.7,65.4z"/>
		</g>
	</g>
</g>
</svg>
