<?xml version="1.0" encoding="utf-8"?>
<!-- Generator: Adobe Illustrator 25.4.1, SVG Export Plug-In . SVG Version: 6.00 Build 0)  -->
<svg version="1.1" id="Layer_1" xmlns="http://www.w3.org/2000/svg" xmlns:xlink="http://www.w3.org/1999/xlink" x="0px" y="0px"
	 viewBox="0 0 500 100" style="enable-background:new 0 0 500 100;" xml:space="preserve">
<style type="text/css">
	.st0{fill:#007AFF;}
	.st1{fill:#FFFFFF;}
	.st2{fill:#94EBFF;}
	.st3{fill:#27B2FF;}
</style>
<g>
	<g>
		<g>
			<path class="st0" d="M24.24,59.56c0.93,1.65,1.99,3.2,3.17,4.65c-1.16-1.42-2.21-2.94-3.13-4.55
				C24.27,59.63,24.26,59.6,24.24,59.56z"/>
			<path class="st1" d="M36.81,72.41H32.8c-14.53,0-26.57-10.73-28.71-24.67c0,0-0.01-0.02-0.01-0.03
				c-0.21-1.42-0.32-2.87-0.32-4.35V5.05c0-0.25,0.06-0.42,0.17-0.62C4.02,4.3,4.13,4.22,4.24,4.08c0.24-0.21,0.56-0.22,0.9-0.22
				h13.32c0.77,0,1.48,0.41,1.48,1.19v38.31c0,0.83,0.06,1.7,0.17,2.59c0.71,5.72,3.42,12.06,4.01,13.36
				c0.02,0.04,0.03,0.07,0.05,0.11c0.04,0.08,0.06,0.13,0.06,0.13c0,0,0,0.01,0.01,0.01c0.02,0.03,0.03,0.07,0.05,0.1
				c0.92,1.61,1.96,3.13,3.13,4.55c0.11,0.14,0.22,0.27,0.34,0.41c0.14,0.17,0.29,0.34,0.44,0.51
				C30.64,67.94,33.56,70.36,36.81,72.41z"/>
			<path class="st2" d="M71.66,33.03v9.92c0,16.15-12.8,29.46-28.95,29.46h-5.9c-3.26-2.06-6.17-4.48-8.62-7.29
				c-4.79-4.66-7.36-13.45-8.07-19.17c1.21,5.89,6.43,10.26,12.68,10.26h9.92c2.85,0,6.62-0.94,9.11-3.91
				c2.42-2.38,3.81-5.7,3.81-9.36v-9.92c0-1.13,0.03-3.54,0.03-3.54c-0.72-7.23-2.94-14.3-6.34-20.55c0,0,0,0.13,0,0.13
				c-0.92-1.69-1.93-3.34-3.02-4.92C63.65,5.59,72.76,22.57,71.66,33.03z"/>
			<path class="st1" d="M49.37,9.02L49.37,9.02c-0.92-1.58-1.93-3.32-3.03-4.9c-1.11-0.13-2.24-0.19-3.39-0.19h-6.99v16.18h6.99
				c6.03,0,11.22,3.72,12.67,9.38C55.63,29.49,55.16,19.9,49.37,9.02z"/>
		</g>
		<g>
			<path class="st3" d="M108.26,31.11c0-11.14-5.27-21.09-13.48-27.25H83.79c-15.46,0-28.2,12.45-28.2,27.91v12.81
				c0,20.71,19.22,27.45,26.58,27.82c-1.65-2.28-3.11-4.69-4.4-7.21c-5.12-12.37-5.49-17.58-5.49-17.58
				c-0.89-3.95-0.42-15.83-0.42-15.83c0-6.52,5.41-11.8,11.93-11.8H96.6c6.42,0,11.58,5.2,11.58,11.62v1.27
				C108.34,32.26,108.26,31.72,108.26,31.11z"/>
			<path class="st1" d="M108.18,56.3H97.31h-13.7c-5.49,0-10.11-3.79-11.33-8.69c0,0,0.69,6.63,5.5,17.74
				c1.11,2.57,2.73,4.79,4.36,7.05c0.02,0.02,0.99,0,1.47,0h24.63h-0.06"/>
			<path class="st1" d="M124.29,31.59c0-15.36-12.33-27.73-27.69-27.73h-1.82c8.21,6.16,13.4,15.87,13.4,27c0,0.63,0,1.42,0,2v14.41
				l0,0V72.4h16.11V31.59z"/>
		</g>
	</g>
	<g>
		<g>
			<path class="st1" d="M171.37,20.48c9.88,0,17.67,4.53,17.67,14.85c0,4.38-2.3,8.32-7.2,10.32c6.24,1.86,8.84,8.02,8.84,11.95
				c0,11.36-9.06,14.85-19.31,14.85c-8.09,0-15.74,0-23.83,0V20.48H171.37z M155.78,42.02h15.67c6.24,0,9.36-2.45,9.36-6.53
				c0-3.64-3.19-7.5-9.43-7.5h-15.59V42.02z M155.78,64.74h15.59c4.6,0,10.99-1.48,10.99-7.2c0-5.57-6.16-8.09-10.91-8.09
				c-5.27,0-10.4,0-15.67,0V64.74z"/>
			<path class="st1" d="M408.74,63.39h-1.67c-1.95,0-3.53,1.58-3.53,3.53v1.87c0,2.02,1.65,3.67,3.67,3.67h3.05h2.15v-5.39
				C412.42,65.05,410.76,63.39,408.74,63.39z"/>
			<g>
				<path class="st1" d="M201.91,29.46h1.67c1.95,0,3.53-1.58,3.53-3.53v-1.87c0-2.02-1.65-3.67-3.67-3.67h-3.05h-2.15v5.39
					C198.24,27.81,199.89,29.46,201.91,29.46z"/>
				<path class="st1" d="M198.92,34.65v37.81h7.65V37.07c0-1.34-1.08-2.42-2.42-2.42H198.92z"/>
			</g>
			<path class="st1" d="M300.8,61.52h-28.21l-4.27,9.51c-0.39,0.87-1.26,1.43-2.21,1.43h-7.29l23.37-52.11h7.52
				c0.95,0,1.82,0.56,2.21,1.43l22.73,50.68h-7.3c-0.95,0-1.81-0.55-2.2-1.42L300.8,61.52z M286.73,29.14l-11.02,24.79h22.03
				L286.73,29.14z"/>
			<path class="st1" d="M391.44,42.61c-0.78,0.91-2.11,1.09-3.11,0.43c-2.37-1.57-4.92-2.05-7.81-2.05
				c-4.58-0.07-7.63,1.45-7.63,4.29c0.07,2.98,3.2,4.14,7.78,4.58c6.61,0.58,15.26,2.04,15.19,11.26
				c-0.07,6.69-5.96,11.34-15.26,11.34c-5.81,0-11.63-1.31-16.35-6.61l2.35-3.18c0.8-1.08,2.32-1.27,3.37-0.45
				c3.19,2.5,7.26,3.57,10.77,3.63c3.56,0,7.56-1.31,7.63-4.65c0.07-3.2-2.98-4.43-8.29-4.94c-6.76-0.65-14.54-2.83-14.61-10.76
				c0-7.92,8.21-10.9,14.9-10.9c5.52,0,9.81,1.24,13.81,4.8L391.44,42.61z"/>
			<path class="st1" d="M455.95,34.6L440,72.46h-8.63L415.34,34.6h7.08c0.98,0,1.86,0.59,2.24,1.5l4.42,10.64l6.64,17.48l5.95-15.95
				l5.03-12.16c0.38-0.91,1.26-1.5,2.24-1.5H455.95z"/>
			<path class="st1" d="M480.23,34.6c-4.74,0-8.82,1.89-12.32,5.73V37c0-1.33-1.08-2.41-2.41-2.41h-5.38v0.53V45.3v27.16h7.78v-19.5
				c0-6.09,4.19-11.13,10.34-11.19c5.62-0.05,10.15,4.63,10.15,10.25l0,18.02c0,1.33,1.08,2.41,2.41,2.41h5.45V52.43
				C496.25,41.02,489.3,34.6,480.23,34.6z"/>
			<path class="st1" d="M349.58,20.35v20.8c-2.35-4.26-8.3-6.47-12.71-6.47c-10.51,0-18.37,6.54-18.37,18.89
				c0,11.98,8.01,18.89,18.52,18.89c4.76,0,9.52-1.77,12.41-6.22v6.22h7.73v-0.73v-9.39V22.41c0-1.14-0.92-2.06-2.06-2.06H349.58z
				 M337.53,65.4c-6.39,0-11.47-4.56-11.47-11.83c0-7.42,5.07-11.76,11.47-11.76c6.32,0,11.54,4.78,11.54,11.76
				C349.07,60.7,343.85,65.4,337.53,65.4z"/>
			<path class="st1" d="M244.96,68.39C251.7,65.78,255,60.34,255,53.67c0-4.68-1.46-8.05-4.6-11.73l4.52-5.29l-3.89-3.01
				c-1.04-0.8-2.52-0.63-3.35,0.38l-2.65,3.24c-2.68-1.84-7.05-2.61-10.19-2.61c-10.27,0-20.46,6.36-20.46,19.01
				c0,11.8,8.2,18.86,20.46,18.86c7.05,0,11.88,2.91,11.88,8.2c0,5.37-6.21,7.74-12.03,7.74c-5.57-0.07-10.89-2.54-11.88-7.2
				c-0.24-1.12-1.22-1.92-2.36-1.92h-5.69c-0.22,7.59,3.85,12.98,10.78,15.38c0.51,0.18,1.03,0.33,1.56,0.48
				c2.28,0.61,4.82,0.93,7.59,0.93c0.5,0,1.01-0.01,1.51-0.04c0.74-0.04,1.47-0.1,2.2-0.19c8.74-1.11,16.53-6.16,16.53-15.17
				C254.92,76.21,252.7,70.99,244.96,68.39z M234.84,65.25c-6.82,0-12.49-4.06-12.49-11.57c0-7.89,6.06-11.65,12.49-11.65
				c6.52,0,12.26,4.22,12.26,11.65C247.11,60.49,241.82,65.25,234.84,65.25z"/>
		</g>
	</g>
</g>
</svg>
